<?xml version="1.0" encoding="utf-8" ?><svg xmlns="http://www.w3.org/2000/svg" xmlns:xlink="http://www.w3.org/1999/xlink" width="2896" height="3968" viewBox="0 0 2896 3968"><path fill="white" transform="scale(3.35135 3.35135)" d="M0 0L864 0L864 1184L0 1184L0 0Z"/><path fill="#91C64C" transform="scale(3.35135 3.35135)" d="M674.675 307.204C686.206 306.014 697.62 310.345 705.443 318.71C720.236 334.528 714.886 359.843 701.49 374.747C694.924 382.668 688.012 385.926 678.084 388.163C657.237 392.862 648.524 408.763 638.081 424.922C634.281 430.699 630.264 436.33 626.039 441.804C599.97 476.282 574.09 507.362 542.411 537.014C542.867 538.019 543.315 539.027 543.757 540.039C564.953 588.614 567.261 648.763 556.06 700.137C551.678 720.237 545.777 736.781 538.332 755.706C558.414 784.141 566.731 827.127 545.779 858.031C541.767 863.948 530.119 872.765 531.948 881.51C535.936 900.578 556.253 913.858 556.189 935.42C556.41 958.116 535.054 967.96 515.204 968.571C508.257 964.151 489.618 944.888 482.34 938.267C470.373 927.035 458.567 916.328 446.589 905.046C435.535 894.636 439.752 874.696 445.597 862.659C449.036 856.114 453.704 850.18 455.706 842.979C459.067 830.893 448.121 817.465 441.97 807.099C427.849 799.57 395.559 797.955 379.529 799.501C375.943 813.303 374.857 825.805 373.742 840.021C372.27 857.167 377.866 877.943 366.308 892.488C359.524 901.552 344.832 902.263 335.644 896.505C323.544 888.923 311.676 877.83 300.616 868.504C287.21 857.333 273.732 846.248 260.183 835.25C252.716 829.106 247.733 825.296 246.642 815.162C243.445 785.461 272.725 780.102 295.994 778.408C279.664 763.473 278.648 746.165 289.936 727.618C296.977 716.05 304.875 709.253 318.127 705.961C322.827 704.966 328.137 705.237 332.926 705.465C322.619 667.085 317.924 628.288 324.3 588.772C326.235 576.783 329.236 565.031 332.174 553.259C320.755 546.648 309.784 538.192 302.155 527.298C297.722 520.967 293.604 513.261 288.809 507.166C271.001 484.631 249.099 462.573 221.588 452.559C200.336 444.823 171.526 449.925 158.355 427.528C152.762 418.018 151.321 405.479 154.044 394.876C157.87 379.977 173.495 371.916 187.959 371.466C190.032 371.475 194.055 371.152 195.945 371.38C213.532 373.496 212.711 361.056 223.591 353.125C225.964 351.395 233.632 351.201 236.76 352.559C244.573 355.95 244.117 369.855 245.515 376.507C246.575 381.49 248.235 386.325 250.457 390.909C256.915 404.206 278.734 422.693 290.225 432.602C300.909 441.815 317.603 445.646 330.976 449.051C337.549 450.725 344.202 453.133 350.719 455.351C339.904 440.421 336.431 433.98 332.688 415.705C320.02 414.828 307.731 411.28 301.696 399.143C293.413 382.487 298.687 355.605 316.255 346.765C326.728 341.495 338.503 342.454 349.162 345.901C358.797 336.811 368.569 327.808 381.707 324.327C386.969 322.932 392.928 321.948 397.985 319.913C402.487 318.101 404.023 312.633 408.216 310.727C414.563 307.844 421.132 314.254 426.71 314.895C431.84 315.484 437.943 315.831 443.106 316.169C454.434 316.911 462.201 319.047 472.855 322.592C497.637 308.166 521.212 314.793 530.149 343.714C536.296 363.605 524.601 380.758 504.955 386.34C509.433 417.374 505.679 436.32 482.87 459.314C492.398 464.278 499.133 464.797 508.279 458.162C516.608 452.12 524.01 444.843 531.727 438.044C557.179 415.618 582.234 392.587 601.105 364.107C605.49 357.556 608.903 353.037 605.903 344.784C603.35 337.761 597.906 330.475 603.47 323.413C614.641 309.234 628.637 324.736 638.556 321.664C652.804 317.252 657.384 308.847 674.675 307.204Z"/><path fill="white" transform="scale(3.35135 3.35135)" d="M440.147 560.441C465.577 557.226 498.807 565.814 518.655 582.049C542.009 601.152 547.007 632.188 526.398 655.351C507.166 676.967 479.755 685.526 451.804 687.756C424.804 689.849 394.215 683.408 372.803 666.241C349.152 647.278 344.969 616.695 365.187 593.458C384.163 571.649 412.194 562.865 440.147 560.441Z"/><path fill="#91C64C" transform="scale(3.35135 3.35135)" d="M442.209 565.652C468.811 564.195 495.932 569.992 516.789 587.634C537.139 604.847 540.152 632.55 521.758 652.594C503.314 672.692 475.562 681.016 448.915 682.486C423.338 683.832 395.447 677.807 375.284 661.184C354.694 644.209 351.316 616.69 369.473 596.423C388.02 575.723 415.223 567.586 442.209 565.652Z"/><path fill="white" transform="scale(3.35135 3.35135)" d="M477.709 582.421C485.586 582.084 493.639 582.168 501.536 582.16C496.298 590.603 490.992 599.004 485.62 607.362C473.87 625.424 471.975 617.915 456.645 625.573C452.714 627.538 434.114 658.179 430.361 663.959C428.812 664.658 410.797 664.492 407.854 664.518C413.384 655.122 425.983 630.917 436.585 626.63C449.1 621.569 454.011 621.491 461.563 608.833C466.874 599.932 472.339 590.948 477.709 582.421Z"/><path fill="white" transform="scale(3.35135 3.35135)" d="M460.12 582.603L474.382 582.624C468.841 591.952 455.543 617.301 446.809 619.783C422.295 626.747 417.848 643.551 404.16 664.699L389.15 664.916C402.593 644.003 405.842 627.35 430.027 621.565C441.163 618.901 453.549 593.725 460.12 582.603Z"/><path fill="white" transform="scale(3.35135 3.35135)" d="M419.584 437.269C425.2 436.93 446.52 435.871 443.949 445.718C442.59 450.925 440.563 454.362 435.974 457.241C429.342 456.771 410.567 448.616 411.732 440.682C413.807 437.914 416.221 437.853 419.584 437.269Z"/><path fill="white" transform="scale(3.35135 3.35135)" d="M446.417 373.49C458.881 372.284 458.648 385.946 457.49 395.103C457.218 397.256 454.476 398.812 452.695 399.769C441.426 400.682 441.251 386.94 441.955 378.831C442.172 376.33 444.501 374.795 446.417 373.49Z"/><path fill="white" transform="scale(3.35135 3.35135)" d="M387.572 384.506C390.818 384.233 393.64 384.119 395.6 387.165C398.91 392.308 399.387 399.876 398.423 405.77C397.969 408.546 395.948 409.762 393.805 411.094C382.293 412.207 382.354 397.922 383.032 389.757C383.236 387.291 385.652 385.742 387.572 384.506Z"/><path fill="white" transform="scale(3.35135 3.35135)" d="M323.819 368.412C329.746 367.909 331.375 368.093 337.065 369.891C335.678 376.456 334.852 383.361 333.292 389.776L332.074 390.494C318.765 390.077 310.458 375.779 323.819 368.412Z"/><path fill="white" transform="scale(3.35135 3.35135)" d="M496.177 341.159C497.365 340.995 498.562 340.912 499.761 340.912C511.796 340.809 514.548 353.195 504.564 361.183C496.781 364.128 495.808 360.908 493.636 353.717C492.527 350.046 491.345 346.703 489.96 343.13C491.856 342.404 494.204 341.758 496.177 341.159Z"/><path fill="white" transform="scale(3.35135 3.35135)" d="M421.9 408.247C434.629 407.757 438.054 417.879 424.149 420.769C410.938 420.782 409.23 411.261 421.9 408.247Z"/></svg>